<?xml version="1.0" encoding="UTF-8"?>
<svg id="Layer_2" data-name="Layer 2" xmlns="http://www.w3.org/2000/svg" viewBox="0 0 434.5 178.5">
  <defs>
    <style>
      .cls-1 {
        isolation: isolate;
      }

      .cls-2 {
        fill: #010101;
      }
    </style>
  </defs>
  <g id="ecb" class="cls-1">
    <g id="ecb-2" data-name="ecb">
      <path class="cls-2" d="M109,67.38c-5-5.75-11.34-10.5-19-14.25-7.67-3.75-16.84-5.62-27.5-5.62-8.67,0-16.79,1.54-24.38,4.62-7.59,3.09-14.21,7.38-19.87,12.88-5.67,5.5-10.13,12.17-13.38,20-3.25,7.84-4.88,16.5-4.88,26v1.5c0,10.34,1.54,19.59,4.63,27.75,3.08,8.17,7.41,15.09,13,20.75,5.58,5.67,12.21,10,19.87,13,7.66,3,16.16,4.5,25.5,4.5,8.16,0,15.29-.92,21.38-2.75,6.08-1.83,11.25-4.16,15.5-7,4.25-2.83,7.71-5.96,10.38-9.38,2.66-3.41,4.75-6.71,6.25-9.88l-27-15c-1.84,3.84-4.84,7.12-9,9.88-4.17,2.75-10.17,4.12-18,4.12-4,0-7.79-.62-11.38-1.88-3.59-1.25-6.75-3-9.5-5.25s-4.92-4.91-6.5-8c-1.59-3.08-2.46-6.46-2.63-10.12H123.5v-16.75c0-6.5-1.17-13.21-3.5-20.12-2.34-6.91-6-13.25-11-19Zm-76,28.88c1.5-5.33,4.75-10.04,9.75-14.12,5-4.08,11.5-6.12,19.5-6.12s14.62,1.92,19.87,5.75c5.25,3.84,8.38,8.67,9.38,14.5H33Zm152.38,2.12c1.75-4.41,4.12-8.16,7.13-11.25,3-3.08,6.5-5.46,10.5-7.12,4-1.66,8.25-2.5,12.75-2.5,9.66,0,17.16,2.67,22.5,8,5.33,5.34,8.5,11.67,9.5,19l31-8c-2.84-14.66-9.63-26.5-20.38-35.5s-24.79-13.5-42.12-13.5c-9,0-17.46,1.5-25.38,4.5-7.92,3-14.84,7.34-20.75,13-5.92,5.67-10.54,12.5-13.88,20.5-3.34,8-5,17-5,27v3c0,10,1.66,18.92,5,26.75,3.33,7.84,7.91,14.42,13.75,19.75,5.83,5.34,12.71,9.42,20.62,12.25,7.91,2.83,16.46,4.25,25.62,4.25,17.66,0,31.79-4.5,42.38-13.5,10.58-9,17.29-20.83,20.12-35.5l-31-7.75c-1.5,8.17-4.79,14.67-9.87,19.5-5.09,4.84-12.46,7.25-22.12,7.25-4.5,0-8.75-.71-12.75-2.12-4-1.41-7.5-3.54-10.5-6.38-3-2.83-5.38-6.37-7.13-10.62-1.75-4.25-2.62-9.12-2.62-14.62v-1.5c0-5.5,.88-10.46,2.62-14.88Zm244.75-14.38c-2.92-7.83-6.84-14.46-11.75-19.88-4.92-5.41-10.67-9.54-17.25-12.38-6.59-2.83-13.54-4.25-20.88-4.25-9.84,0-17.92,1.88-24.25,5.62-6.34,3.75-11.17,9.04-14.5,15.88h-4.5V0h-31.5V175h31.5v-18h4.5c1.5,2.84,3.29,5.54,5.38,8.12,2.08,2.59,4.66,4.88,7.75,6.88,3.08,2,6.71,3.58,10.88,4.75,4.16,1.16,9.08,1.75,14.75,1.75,7.66,0,14.79-1.38,21.38-4.12,6.58-2.75,12.29-6.83,17.12-12.25,4.83-5.41,8.66-12.04,11.5-19.88,2.83-7.83,4.25-16.83,4.25-27v-4.5c0-10-1.46-18.91-4.38-26.75Zm-27.12,30.5c0,10.5-3.04,18.79-9.13,24.87-6.09,6.09-14.04,9.13-23.88,9.13s-17.79-3.12-23.87-9.38c-6.09-6.25-9.12-14.46-9.12-24.62v-3c0-10.16,3.04-18.38,9.12-24.62,6.08-6.25,14.04-9.38,23.87-9.38s17.79,3.04,23.88,9.12c6.08,6.09,9.13,14.38,9.13,24.88v3Z"/>
    </g>
  </g>
</svg>