<?xml version="1.0" encoding="UTF-8"?>
<svg id="Layer_2" data-name="Layer 2" xmlns="http://www.w3.org/2000/svg" viewBox="0 0 1016.2 201.5">
  <defs>
    <style>
      .cls-1 {
        isolation: isolate;
      }

      .cls-2 {
        fill: #010101;
      }
    </style>
  </defs>
  <g id="Image_14" data-name="Image 14" class="cls-1">
    <g id="Image_14-2" data-name="Image 14">
      <path class="cls-2" d="M87.2,53.9c-4-4.6-9.07-8.4-15.2-11.4-6.13-3-13.47-4.5-22-4.5-6.93,0-13.43,1.23-19.5,3.7-6.07,2.47-11.37,5.9-15.9,10.3-4.53,4.4-8.1,9.73-10.7,16-2.6,6.27-3.9,13.2-3.9,20.8v1.2c0,8.27,1.23,15.67,3.7,22.2,2.47,6.53,5.93,12.07,10.4,16.6,4.47,4.53,9.77,8,15.9,10.4,6.13,2.4,12.93,3.6,20.4,3.6,6.53,0,12.23-.73,17.1-2.2,4.87-1.47,9-3.33,12.4-5.6,3.4-2.27,6.17-4.77,8.3-7.5,2.13-2.73,3.8-5.37,5-7.9l-21.6-12c-1.47,3.07-3.87,5.7-7.2,7.9-3.33,2.2-8.13,3.3-14.4,3.3-3.2,0-6.23-.5-9.1-1.5-2.87-1-5.4-2.4-7.6-4.2s-3.93-3.93-5.2-6.4c-1.27-2.47-1.97-5.17-2.1-8.1H98.8v-13.4c0-5.2-.93-10.57-2.8-16.1-1.87-5.53-4.8-10.6-8.8-15.2Zm-60.8,23.1c1.2-4.27,3.8-8.03,7.8-11.3,4-3.27,9.2-4.9,15.6-4.9s11.7,1.53,15.9,4.6c4.2,3.07,6.7,6.93,7.5,11.6H26.4Zm121.9,1.7c1.4-3.53,3.3-6.53,5.7-9,2.4-2.47,5.2-4.37,8.4-5.7,3.2-1.33,6.6-2,10.2-2,7.73,0,13.73,2.13,18,6.4,4.27,4.27,6.8,9.33,7.6,15.2l24.8-6.4c-2.27-11.73-7.7-21.2-16.3-28.4-8.6-7.2-19.83-10.8-33.7-10.8-7.2,0-13.97,1.2-20.3,3.6-6.33,2.4-11.87,5.87-16.6,10.4-4.73,4.53-8.43,10-11.1,16.4-2.67,6.4-4,13.6-4,21.6v2.4c0,8,1.33,15.13,4,21.4,2.67,6.27,6.33,11.53,11,15.8,4.67,4.27,10.17,7.53,16.5,9.8,6.33,2.27,13.17,3.4,20.5,3.4,14.13,0,25.43-3.6,33.9-10.8,8.47-7.2,13.83-16.67,16.1-28.4l-24.8-6.2c-1.2,6.53-3.83,11.73-7.9,15.6-4.07,3.87-9.97,5.8-17.7,5.8-3.6,0-7-.57-10.2-1.7-3.2-1.13-6-2.83-8.4-5.1-2.4-2.27-4.3-5.1-5.7-8.5-1.4-3.4-2.1-7.3-2.1-11.7v-1.2c0-4.4,.7-8.37,2.1-11.9Zm252.8-27.4c-3.93-4.33-8.53-7.63-13.8-9.9-5.27-2.27-10.83-3.4-16.7-3.4-7.87,0-14.33,1.5-19.4,4.5-5.07,3-8.93,7.23-11.6,12.7h-3.6V0h-25.2V140h25.2v-14.4h3.6c1.2,2.27,2.63,4.43,4.3,6.5,1.67,2.07,3.73,3.9,6.2,5.5,2.47,1.6,5.37,2.87,8.7,3.8,3.33,.93,7.27,1.4,11.8,1.4,6.13,0,11.83-1.1,17.1-3.3,5.27-2.2,9.83-5.47,13.7-9.8,3.87-4.33,6.93-9.63,9.2-15.9,2.27-6.27,3.4-13.47,3.4-21.6v-3.6c0-8-1.17-15.13-3.5-21.4-2.33-6.27-5.47-11.57-9.4-15.9Zm-12.3,40.3c0,8.4-2.43,15.03-7.3,19.9s-11.23,7.3-19.1,7.3-14.23-2.5-19.1-7.5c-4.87-5-7.3-11.57-7.3-19.7v-2.4c0-8.13,2.43-14.7,7.3-19.7,4.87-5,11.23-7.5,19.1-7.5s14.23,2.43,19.1,7.3c4.87,4.87,7.3,11.5,7.3,19.9v2.4ZM496.8,0h-58.8V24h33.6V116h-34.8v24h92.4v-24h-32.4V0Zm144.6,51.4c-4.8-4.4-10.3-7.73-16.5-10-6.2-2.27-12.7-3.4-19.5-3.4s-13.3,1.13-19.5,3.4c-6.2,2.27-11.7,5.6-16.5,10-4.8,4.4-8.6,9.77-11.4,16.1-2.8,6.33-4.2,13.57-4.2,21.7v2.4c0,8.27,1.4,15.57,4.2,21.9,2.8,6.33,6.6,11.67,11.4,16,4.8,4.33,10.3,7.63,16.5,9.9,6.2,2.27,12.7,3.4,19.5,3.4s13.3-1.13,19.5-3.4c6.2-2.27,11.7-5.57,16.5-9.9,4.8-4.33,8.6-9.67,11.4-16,2.8-6.33,4.2-13.63,4.2-21.9v-2.4c0-8.13-1.4-15.37-4.2-21.7-2.8-6.33-6.6-11.7-11.4-16.1Zm-9.6,41c0,4.13-.7,7.83-2.1,11.1-1.4,3.27-3.3,6.03-5.7,8.3-2.4,2.27-5.2,4-8.4,5.2-3.2,1.2-6.6,1.8-10.2,1.8s-7-.6-10.2-1.8c-3.2-1.2-6-2.93-8.4-5.2-2.4-2.27-4.3-5.03-5.7-8.3-1.4-3.27-2.1-6.97-2.1-11.1v-4c0-4.13,.7-7.83,2.1-11.1,1.4-3.27,3.3-6.03,5.7-8.3,2.4-2.27,5.2-4,8.4-5.2s6.6-1.8,10.2-1.8,7,.6,10.2,1.8,6,2.93,8.4,5.2c2.4,2.27,4.3,5.03,5.7,8.3,1.4,3.27,2.1,6.97,2.1,11.1v4Zm72.5-13.7c1.4-3.53,3.3-6.53,5.7-9,2.4-2.47,5.2-4.37,8.4-5.7,3.2-1.33,6.6-2,10.2-2,7.73,0,13.73,2.13,18,6.4,4.27,4.27,6.8,9.33,7.6,15.2l24.8-6.4c-2.27-11.73-7.7-21.2-16.3-28.4-8.6-7.2-19.83-10.8-33.7-10.8-7.2,0-13.97,1.2-20.3,3.6-6.33,2.4-11.87,5.87-16.6,10.4-4.73,4.53-8.43,10-11.1,16.4-2.67,6.4-4,13.6-4,21.6v2.4c0,8,1.33,15.13,4,21.4,2.67,6.27,6.33,11.53,11,15.8,4.67,4.27,10.17,7.53,16.5,9.8,6.33,2.27,13.17,3.4,20.5,3.4,14.13,0,25.43-3.6,33.9-10.8,8.47-7.2,13.83-16.67,16.1-28.4l-24.8-6.2c-1.2,6.53-3.83,11.73-7.9,15.6-4.07,3.87-9.97,5.8-17.7,5.8-3.6,0-7-.57-10.2-1.7-3.2-1.13-6-2.83-8.4-5.1-2.4-2.27-4.3-5.1-5.7-8.5-1.4-3.4-2.1-7.3-2.1-11.7v-1.2c0-4.4,.7-8.37,2.1-11.9Zm160.3,8.7l32-45.4v-1.2h-27.6l-26.4,36.4h-4.8V0h-25.2V140h25.2v-38.8h4.8l28.4,38.8h28.8v-1.2l-35.2-47.8v-3.6Zm142,.9c-6.4-5-14.67-8.03-24.8-9.1-8.8-.93-14.87-2.1-18.2-3.5-3.33-1.4-5-3.7-5-6.9,0-2.27,1.07-4.17,3.2-5.7,2.13-1.53,5.33-2.3,9.6-2.3,4.67,0,8.47,1.03,11.4,3.1,2.93,2.07,5,4.9,6.2,8.5l22.8-9.2c-1.07-2.8-2.6-5.7-4.6-8.7-2-3-4.6-5.73-7.8-8.2-3.2-2.47-7.1-4.47-11.7-6-4.6-1.53-10.03-2.3-16.3-2.3-4.8,0-9.47,.67-14,2-4.53,1.33-8.53,3.3-12,5.9-3.47,2.6-6.27,5.77-8.4,9.5-2.13,3.73-3.2,8.07-3.2,13v1.2c0,9.47,3.3,16.63,9.9,21.5,6.6,4.87,15.5,7.77,26.7,8.7,4.13,.4,7.57,.93,10.3,1.6,2.73,.67,4.9,1.5,6.5,2.5,1.6,1,2.7,2.07,3.3,3.2,.6,1.13,.9,2.37,.9,3.7,0,2.27-1.17,4.37-3.5,6.3-2.33,1.93-6.63,2.9-12.9,2.9-7.07,0-12.3-1.6-15.7-4.8-3.4-3.2-5.63-6.93-6.7-11.2l-23.2,7.6c.67,3.47,1.97,7.03,3.9,10.7,1.93,3.67,4.7,7,8.3,10,3.6,3,8.13,5.5,13.6,7.5,5.47,2,12.07,3,19.8,3,13.07,0,23.2-2.93,30.4-8.8,7.2-5.87,10.8-13.73,10.8-23.6v-1.2c0-8.93-3.2-15.9-9.6-20.9Z"/>
    </g>
  </g>
</svg>