<?xml version="1.0" encoding="UTF-8"?>
<svg id="Layer_1" data-name="Layer 1" xmlns="http://www.w3.org/2000/svg" viewBox="0 0 1916.38 380">
  <g id="Image_11_Clipping_Path" data-name="Image 11 Clipping Path">
    <path d="M626.14,320.55c-1.89-2.17-4.28-3.96-7.17-5.37-2.89-1.41-6.35-2.12-10.37-2.12-3.27,0-6.33,.58-9.19,1.74-2.86,1.16-5.36,2.78-7.5,4.86-2.14,2.07-3.82,4.59-5.04,7.54-1.23,2.96-1.84,6.22-1.84,9.81v.57c0,3.9,.58,7.39,1.74,10.47,1.16,3.08,2.8,5.69,4.9,7.83,2.11,2.14,4.6,3.77,7.5,4.9,2.89,1.13,6.1,1.7,9.62,1.7,3.08,0,5.77-.35,8.06-1.04,2.29-.69,4.24-1.57,5.85-2.64,1.6-1.07,2.91-2.25,3.91-3.54,1-1.29,1.79-2.53,2.36-3.72l-10.18-5.66c-.69,1.45-1.82,2.69-3.39,3.72-1.57,1.04-3.84,1.56-6.79,1.56-1.51,0-2.94-.24-4.29-.71-1.35-.47-2.55-1.13-3.58-1.98-1.04-.85-1.85-1.85-2.45-3.02-.6-1.16-.93-2.44-.99-3.82h34.32v-6.32c0-2.45-.44-4.98-1.32-7.59-.88-2.61-2.26-5-4.15-7.17Zm-28.66,10.89c.57-2.01,1.79-3.79,3.68-5.33,1.89-1.54,4.34-2.31,7.35-2.31s5.52,.72,7.5,2.17c1.98,1.45,3.16,3.27,3.54,5.47h-22.06Zm90.05,15.56v-32.62h-11.88v5.66h-1.7c-1.19-2.39-2.81-4.15-4.86-5.28-2.04-1.13-4.73-1.7-8.06-1.7-2.77,0-5.36,.55-7.78,1.65-2.42,1.1-4.54,2.69-6.36,4.76-1.82,2.07-3.27,4.59-4.34,7.54-1.07,2.96-1.6,6.29-1.6,9.99v1.51c0,3.77,.55,7.14,1.65,10.09,1.1,2.96,2.59,5.47,4.48,7.54,1.89,2.07,4.07,3.65,6.55,4.71,2.48,1.07,5.14,1.6,7.97,1.6,3.02,0,5.66-.61,7.92-1.84,2.26-1.23,4.02-3.31,5.28-6.27h1.7c0,2.01,.67,3.65,2.03,4.9,1.35,1.26,3.1,1.89,5.23,1.89h8.11v-11.32h-1.79c-1.7,0-2.55-.94-2.55-2.83Zm-11.88-8.67c0,3.96-1.04,7.09-3.11,9.38-2.07,2.3-4.84,3.44-8.3,3.44s-6.22-1.15-8.3-3.44c-2.07-2.29-3.11-5.42-3.11-9.38v-1.13c0-3.96,1.04-7.09,3.11-9.38,2.07-2.29,4.84-3.44,8.3-3.44s6.22,1.15,8.3,3.44c2.07,2.3,3.11,5.42,3.11,9.38v1.13Zm64.12-1.56c-3.02-2.36-6.92-3.79-11.69-4.29-4.15-.44-7.01-.99-8.58-1.65-1.57-.66-2.36-1.74-2.36-3.25,0-1.07,.5-1.96,1.51-2.69,1-.72,2.51-1.08,4.53-1.08,2.2,0,3.99,.49,5.37,1.46,1.38,.98,2.36,2.31,2.92,4.01l10.75-4.34c-.5-1.32-1.23-2.69-2.17-4.1-.94-1.41-2.17-2.7-3.68-3.87-1.51-1.16-3.35-2.11-5.52-2.83-2.17-.72-4.73-1.08-7.68-1.08-2.26,0-4.46,.32-6.6,.94-2.14,.63-4.02,1.56-5.66,2.78-1.64,1.23-2.96,2.72-3.96,4.48-1.01,1.76-1.51,3.8-1.51,6.13v.57c0,4.46,1.56,7.84,4.67,10.14,3.11,2.3,7.31,3.66,12.59,4.1,1.95,.19,3.57,.44,4.86,.75,1.29,.32,2.31,.71,3.06,1.18,.75,.47,1.27,.98,1.56,1.51,.28,.53,.42,1.12,.42,1.74,0,1.07-.55,2.06-1.65,2.97-1.1,.91-3.13,1.37-6.08,1.37-3.33,0-5.8-.75-7.4-2.26-1.6-1.51-2.66-3.27-3.16-5.28l-10.94,3.58c.31,1.64,.93,3.32,1.84,5.04,.91,1.73,2.22,3.3,3.91,4.71,1.7,1.41,3.83,2.59,6.41,3.54,2.58,.94,5.69,1.41,9.33,1.41,6.16,0,10.94-1.38,14.33-4.15,3.39-2.77,5.09-6.47,5.09-11.13v-.57c0-4.21-1.51-7.5-4.53-9.85Zm51.86,2.12c0,3.96-.83,7.09-2.5,9.38-1.67,2.3-4.29,3.44-7.87,3.44-3.14,0-5.5-.93-7.07-2.78-1.57-1.85-2.36-4.45-2.36-7.78v-26.78h-11.88v29.23c0,3.21,.42,5.99,1.27,8.34,.85,2.36,2.03,4.32,3.54,5.89,1.51,1.57,3.27,2.73,5.28,3.49,2.01,.75,4.18,1.13,6.51,1.13,6.85,0,11.32-2.7,13.39-8.11h1.7v11.5c0,1.89-.85,2.83-2.55,2.83h-20.65v11.32h27.82c2.14,0,3.88-.69,5.23-2.07,1.35-1.38,2.03-3.14,2.03-5.28v-58.27h-11.88v24.52Zm89.29-43.75h-11.88v19.24h-13.86v11.31h13.86v28.1c0,2.14,.67,3.9,2.03,5.28,1.35,1.38,3.1,2.07,5.23,2.07h19.8v-11.32h-12.64c-1.7,0-2.55-.94-2.55-2.83v-21.31h16.88v-11.31h-16.88v-19.24Zm71.76,24.23c-2.26-2.07-4.86-3.64-7.78-4.71-2.92-1.07-5.99-1.6-9.19-1.6s-6.27,.53-9.19,1.6c-2.92,1.07-5.52,2.64-7.78,4.71-2.26,2.07-4.05,4.61-5.37,7.59-1.32,2.99-1.98,6.4-1.98,10.23v1.13c0,3.9,.66,7.34,1.98,10.32,1.32,2.99,3.11,5.5,5.37,7.54,2.26,2.04,4.86,3.6,7.78,4.67s5.99,1.6,9.19,1.6,6.27-.53,9.19-1.6c2.92-1.07,5.52-2.62,7.78-4.67,2.26-2.04,4.05-4.56,5.37-7.54,1.32-2.98,1.98-6.43,1.98-10.32v-1.13c0-3.83-.66-7.24-1.98-10.23-1.32-2.98-3.11-5.52-5.37-7.59Zm-4.53,19.33c0,1.95-.33,3.69-.99,5.23-.66,1.54-1.56,2.84-2.69,3.91-1.13,1.07-2.45,1.89-3.96,2.45-1.51,.57-3.11,.85-4.81,.85s-3.3-.28-4.81-.85c-1.51-.57-2.83-1.38-3.96-2.45-1.13-1.07-2.03-2.37-2.69-3.91-.66-1.54-.99-3.28-.99-5.23v-1.89c0-1.95,.33-3.69,.99-5.23,.66-1.54,1.56-2.84,2.69-3.91,1.13-1.07,2.45-1.89,3.96-2.45,1.51-.57,3.11-.85,4.81-.85s3.3,.28,4.81,.85c1.51,.57,2.83,1.38,3.96,2.45,1.13,1.07,2.03,2.37,2.69,3.91,.66,1.54,.99,3.29,.99,5.23v1.89Zm103.2-19.38c-1.85-2.04-4.02-3.6-6.51-4.67-2.48-1.07-5.11-1.6-7.87-1.6-3.71,0-6.76,.71-9.15,2.12-2.39,1.41-4.21,3.41-5.47,5.99h-1.7v-26.02h-11.88v66h11.88v-6.79h1.7c.57,1.07,1.24,2.09,2.03,3.06,.79,.98,1.76,1.84,2.92,2.59,1.16,.75,2.53,1.35,4.1,1.79,1.57,.44,3.43,.66,5.56,.66,2.89,0,5.58-.52,8.06-1.56,2.48-1.04,4.64-2.58,6.46-4.62,1.82-2.04,3.27-4.54,4.34-7.5,1.07-2.95,1.6-6.35,1.6-10.18v-1.7c0-3.77-.55-7.13-1.65-10.09-1.1-2.95-2.58-5.45-4.43-7.5Zm-5.8,19c0,3.96-1.15,7.09-3.44,9.38-2.3,2.3-5.3,3.44-9,3.44s-6.71-1.18-9-3.54c-2.3-2.36-3.44-5.45-3.44-9.29v-1.13c0-3.83,1.15-6.93,3.44-9.29,2.29-2.36,5.3-3.54,9-3.54s6.71,1.15,9,3.44c2.29,2.3,3.44,5.42,3.44,9.38v1.13Zm54.59,.57c0,3.96-.83,7.09-2.5,9.38-1.67,2.3-4.29,3.44-7.87,3.44-3.14,0-5.5-.93-7.07-2.78-1.57-1.85-2.36-4.45-2.36-7.78v-26.78h-11.88v29.23c0,3.21,.42,5.99,1.27,8.34,.85,2.36,2.03,4.32,3.54,5.89,1.51,1.57,3.27,2.73,5.28,3.49,2.01,.75,4.18,1.13,6.51,1.13,6.85,0,11.31-2.7,13.39-8.11h1.7v6.79h11.88v-46.77h-11.88v24.52Zm42.24-32.01c.82,.79,1.76,1.41,2.83,1.89,1.07,.47,2.23,.71,3.49,.71,1.19,0,2.34-.24,3.44-.71,1.1-.47,2.06-1.1,2.88-1.89,.82-.79,1.46-1.73,1.93-2.83,.47-1.1,.71-2.28,.71-3.54s-.24-2.44-.71-3.54c-.47-1.1-1.12-2.04-1.93-2.83-.82-.79-1.78-1.41-2.88-1.89-1.1-.47-2.25-.71-3.44-.71-1.26,0-2.42,.24-3.49,.71-1.07,.47-2.01,1.1-2.83,1.89-.82,.79-1.46,1.73-1.93,2.83-.47,1.1-.71,2.28-.71,3.54s.24,2.44,.71,3.54c.47,1.1,1.12,2.04,1.93,2.83Zm12.35,7.5h-26.59v11.31h14.71v24.14h-15.84v11.32h41.3v-11.32h-13.58v-35.45Zm57.14-19.24h-27.72v11.32h15.84v43.37h-16.41v11.32h43.56v-11.32h-15.28v-54.69Zm63.27,26.02h-1.7c-1.26-2.58-2.99-4.57-5.19-5.99-2.2-1.41-5.19-2.12-8.96-2.12-2.83,0-5.52,.53-8.06,1.6-2.55,1.07-4.78,2.63-6.69,4.67-1.92,2.04-3.43,4.54-4.53,7.5-1.1,2.96-1.65,6.32-1.65,10.09v1.7c0,3.84,.52,7.23,1.56,10.18,1.04,2.96,2.48,5.45,4.34,7.5,1.85,2.04,4.02,3.58,6.51,4.62,2.48,1.04,5.17,1.56,8.06,1.56,2.26,0,4.2-.22,5.8-.66,1.6-.44,2.98-1.04,4.15-1.79,1.16-.75,2.11-1.62,2.83-2.59,.72-.97,1.33-1.99,1.84-3.06h1.7v6.79h11.88v-66h-11.88v26.02Zm0,17.16c0,3.84-1.15,6.93-3.44,9.29-2.3,2.36-5.3,3.54-9.01,3.54s-6.71-1.15-9-3.44c-2.3-2.29-3.44-5.42-3.44-9.38v-1.13c0-3.96,1.15-7.09,3.44-9.38,2.29-2.29,5.3-3.44,9-3.44s6.71,1.18,9.01,3.54c2.29,2.36,3.44,5.45,3.44,9.29v1.13Zm102.31-17.77c-1.89-2.17-4.28-3.96-7.17-5.37-2.89-1.41-6.35-2.12-10.37-2.12-3.27,0-6.33,.58-9.19,1.74-2.86,1.16-5.36,2.78-7.5,4.86-2.14,2.07-3.82,4.59-5.04,7.54-1.23,2.96-1.84,6.22-1.84,9.81v.57c0,3.9,.58,7.39,1.74,10.47,1.16,3.08,2.8,5.69,4.9,7.83,2.11,2.14,4.6,3.77,7.5,4.9,2.89,1.13,6.1,1.7,9.62,1.7,3.08,0,5.77-.35,8.06-1.04,2.29-.69,4.24-1.57,5.85-2.64,1.6-1.07,2.91-2.25,3.91-3.54,1-1.29,1.79-2.53,2.36-3.72l-10.18-5.66c-.69,1.45-1.82,2.69-3.39,3.72-1.57,1.04-3.84,1.56-6.79,1.56-1.51,0-2.94-.24-4.29-.71-1.35-.47-2.55-1.13-3.58-1.98-1.04-.85-1.85-1.85-2.45-3.02-.6-1.16-.93-2.44-.99-3.82h34.32v-6.32c0-2.45-.44-4.98-1.32-7.59-.88-2.61-2.26-5-4.15-7.17Zm-28.66,10.89c.57-2.01,1.79-3.79,3.68-5.33,1.89-1.54,4.34-2.31,7.35-2.31s5.52,.72,7.5,2.17c1.98,1.45,3.16,3.27,3.54,5.47h-22.06Zm53.84,9.15h29.42v-10.75h-29.42v10.75Zm61.34-8.34c.66-1.66,1.56-3.08,2.69-4.24,1.13-1.16,2.45-2.06,3.96-2.69,1.51-.63,3.11-.94,4.81-.94,3.64,0,6.47,1.01,8.49,3.02,2.01,2.01,3.21,4.4,3.58,7.17l11.69-3.02c-1.07-5.53-3.63-9.99-7.68-13.39-4.05-3.39-9.35-5.09-15.89-5.09-3.39,0-6.59,.57-9.57,1.7-2.99,1.13-5.6,2.77-7.83,4.9-2.23,2.14-3.98,4.71-5.23,7.73-1.26,3.02-1.89,6.41-1.89,10.18v1.13c0,3.77,.63,7.14,1.89,10.09,1.26,2.96,2.98,5.44,5.19,7.45,2.2,2.01,4.79,3.55,7.78,4.62,2.99,1.07,6.21,1.6,9.67,1.6,6.66,0,11.99-1.7,15.98-5.09,3.99-3.39,6.52-7.86,7.59-13.39l-11.69-2.92c-.57,3.08-1.81,5.53-3.72,7.35-1.92,1.82-4.7,2.73-8.34,2.73-1.7,0-3.3-.27-4.81-.8-1.51-.53-2.83-1.33-3.96-2.4-1.13-1.07-2.03-2.4-2.69-4.01-.66-1.6-.99-3.44-.99-5.52v-.57c0-2.07,.33-3.94,.99-5.61Zm85.76-12.87c-2.26-2.07-4.86-3.64-7.78-4.71-2.92-1.07-5.99-1.6-9.19-1.6s-6.27,.53-9.19,1.6c-2.92,1.07-5.52,2.64-7.78,4.71-2.26,2.07-4.05,4.61-5.37,7.59-1.32,2.99-1.98,6.4-1.98,10.23v1.13c0,3.9,.66,7.34,1.98,10.32,1.32,2.99,3.11,5.5,5.37,7.54,2.26,2.04,4.86,3.6,7.78,4.67,2.92,1.07,5.99,1.6,9.19,1.6s6.27-.53,9.19-1.6c2.92-1.07,5.52-2.62,7.78-4.67,2.26-2.04,4.05-4.56,5.37-7.54,1.32-2.98,1.98-6.43,1.98-10.32v-1.13c0-3.83-.66-7.24-1.98-10.23-1.32-2.98-3.11-5.52-5.37-7.59Zm-4.53,19.33c0,1.95-.33,3.69-.99,5.23-.66,1.54-1.56,2.84-2.69,3.91-1.13,1.07-2.45,1.89-3.96,2.45-1.51,.57-3.11,.85-4.81,.85s-3.3-.28-4.81-.85c-1.51-.57-2.83-1.38-3.96-2.45-1.13-1.07-2.03-2.37-2.69-3.91-.66-1.54-.99-3.28-.99-5.23v-1.89c0-1.95,.33-3.69,.99-5.23,.66-1.54,1.56-2.84,2.69-3.91,1.13-1.07,2.45-1.89,3.96-2.45,1.51-.57,3.11-.85,4.81-.85s3.3,.28,4.81,.85c1.51,.57,2.83,1.38,3.96,2.45,1.13,1.07,2.03,2.37,2.69,3.91,.66,1.54,.99,3.29,.99,5.23v1.89Zm60.35-25.65c-2.39,0-4.38,.55-5.99,1.65-1.6,1.1-2.66,2.5-3.16,4.2h-1.7c-.5-1.7-1.48-3.1-2.92-4.2-1.45-1.1-3.21-1.65-5.28-1.65-2.2,0-3.98,.55-5.33,1.65-1.35,1.1-2.22,2.5-2.59,4.2h-1.7v-4.53h-11.88v46.77h11.88v-32.25c0-1.51,.38-2.64,1.13-3.39,.75-.75,1.7-1.13,2.83-1.13,1,0,1.87,.33,2.59,.99,.72,.66,1.08,1.65,1.08,2.97v32.81h11.88v-32.25c0-1.51,.36-2.64,1.08-3.39,.72-.75,1.71-1.13,2.97-1.13,1.07,0,1.93,.33,2.59,.99,.66,.66,.99,1.65,.99,2.97v32.81h11.88v-36.21c0-3.71-.94-6.62-2.83-8.72-1.89-2.11-4.4-3.16-7.54-3.16Zm57.71,0c-2.39,0-4.38,.55-5.99,1.65-1.6,1.1-2.66,2.5-3.16,4.2h-1.7c-.5-1.7-1.48-3.1-2.92-4.2-1.45-1.1-3.21-1.65-5.28-1.65-2.2,0-3.98,.55-5.33,1.65-1.35,1.1-2.22,2.5-2.59,4.2h-1.7v-4.53h-11.88v46.77h11.88v-32.25c0-1.51,.38-2.64,1.13-3.39,.75-.75,1.7-1.13,2.83-1.13,1,0,1.87,.33,2.59,.99,.72,.66,1.08,1.65,1.08,2.97v32.81h11.88v-32.25c0-1.51,.36-2.64,1.08-3.39,.72-.75,1.71-1.13,2.97-1.13,1.07,0,1.93,.33,2.59,.99,.66,.66,.99,1.65,.99,2.97v32.81h11.88v-36.21c0-3.71-.94-6.62-2.83-8.72-1.89-2.11-4.4-3.16-7.54-3.16Zm60.44,7.5c-1.89-2.17-4.28-3.96-7.17-5.37-2.89-1.41-6.35-2.12-10.37-2.12-3.27,0-6.33,.58-9.19,1.74-2.86,1.16-5.36,2.78-7.5,4.86-2.14,2.07-3.82,4.59-5.04,7.54-1.23,2.96-1.84,6.22-1.84,9.81v.57c0,3.9,.58,7.39,1.74,10.47,1.16,3.08,2.8,5.69,4.9,7.83,2.11,2.14,4.6,3.77,7.5,4.9,2.89,1.13,6.1,1.7,9.62,1.7,3.08,0,5.77-.35,8.06-1.04,2.29-.69,4.24-1.57,5.85-2.64,1.6-1.07,2.91-2.25,3.91-3.54,1-1.29,1.79-2.53,2.36-3.72l-10.18-5.66c-.69,1.45-1.82,2.69-3.39,3.72-1.57,1.04-3.83,1.56-6.79,1.56-1.51,0-2.94-.24-4.29-.71-1.35-.47-2.55-1.13-3.58-1.98-1.04-.85-1.85-1.85-2.45-3.02-.6-1.16-.93-2.44-.99-3.82h34.32v-6.32c0-2.45-.44-4.98-1.32-7.59-.88-2.61-2.26-5-4.15-7.17Zm-28.66,10.89c.57-2.01,1.79-3.79,3.68-5.33,1.89-1.54,4.34-2.31,7.35-2.31s5.52,.72,7.5,2.17c1.98,1.45,3.16,3.27,3.54,5.47h-22.06Zm78.36-18.39c-2.96,0-5.49,.71-7.59,2.12-2.11,1.41-3.6,3.41-4.48,5.99h-1.7v-6.79h-19.8v11.31h8.49v24.14h-9.62v11.32h32.25v-11.32h-10.75v-15.09c0-3.39,.75-6,2.26-7.83,1.51-1.82,3.58-2.73,6.22-2.73s4.62,.77,5.94,2.31c1.32,1.54,1.98,3.6,1.98,6.18v1.32l12.26-1.13v-2.07c0-5.97-1.41-10.42-4.24-13.34-2.83-2.92-6.57-4.38-11.22-4.38Zm36.82,19.19c.66-1.66,1.56-3.08,2.69-4.24,1.13-1.16,2.45-2.06,3.96-2.69,1.51-.63,3.11-.94,4.81-.94,3.64,0,6.47,1.01,8.49,3.02,2.01,2.01,3.21,4.4,3.58,7.17l11.69-3.02c-1.07-5.53-3.63-9.99-7.68-13.39-4.05-3.39-9.35-5.09-15.89-5.09-3.39,0-6.59,.57-9.57,1.7-2.99,1.13-5.6,2.77-7.83,4.9-2.23,2.14-3.98,4.71-5.23,7.73-1.26,3.02-1.89,6.41-1.89,10.18v1.13c0,3.77,.63,7.14,1.89,10.09,1.26,2.96,2.98,5.44,5.19,7.45,2.2,2.01,4.79,3.55,7.78,4.62,2.98,1.07,6.21,1.6,9.66,1.6,6.66,0,11.99-1.7,15.98-5.09,3.99-3.39,6.52-7.86,7.59-13.39l-11.69-2.92c-.57,3.08-1.81,5.53-3.72,7.35-1.92,1.82-4.7,2.73-8.34,2.73-1.7,0-3.3-.27-4.81-.8-1.51-.53-2.83-1.33-3.96-2.4-1.13-1.07-2.03-2.4-2.69-4.01-.66-1.6-.99-3.44-.99-5.52v-.57c0-2.07,.33-3.94,.99-5.61Zm92.08,3.06c0-2.45-.44-4.98-1.32-7.59-.88-2.61-2.26-5-4.15-7.17s-4.28-3.96-7.17-5.37c-2.89-1.41-6.35-2.12-10.37-2.12-3.27,0-6.33,.58-9.19,1.74-2.86,1.16-5.36,2.78-7.5,4.86-2.14,2.07-3.82,4.59-5.04,7.54-1.23,2.96-1.84,6.22-1.84,9.81v.57c0,3.9,.58,7.39,1.74,10.47,1.16,3.08,2.8,5.69,4.9,7.83,2.11,2.14,4.6,3.77,7.5,4.9,2.89,1.13,6.1,1.7,9.62,1.7,3.08,0,5.77-.35,8.06-1.04,2.29-.69,4.24-1.57,5.85-2.64,1.6-1.07,2.91-2.25,3.91-3.54,1-1.29,1.79-2.53,2.36-3.72l-10.18-5.66c-.69,1.45-1.82,2.69-3.39,3.72-1.57,1.04-3.83,1.56-6.79,1.56-1.51,0-2.94-.24-4.29-.71-1.35-.47-2.55-1.13-3.58-1.98-1.04-.85-1.85-1.85-2.45-3.02-.6-1.16-.93-2.44-.99-3.82h34.32v-6.32Zm-34.13-3.87c.57-2.01,1.79-3.79,3.68-5.33,1.89-1.54,4.34-2.31,7.35-2.31s5.52,.72,7.5,2.17c1.98,1.45,3.16,3.27,3.54,5.47h-22.06Z" style="fill: #ffa630;"/>
  </g>
  <g id="Image_14" data-name="Image 14">
    <path d="M164.44,101.65c-7.54-8.67-17.1-15.84-28.66-21.5-11.57-5.66-25.4-8.49-41.49-8.49-13.08,0-25.33,2.33-36.77,6.98-11.44,4.66-21.44,11.13-29.98,19.42-8.55,8.3-15.28,18.36-20.18,30.17C2.45,140.06,0,153.13,0,167.46v2.26C0,185.32,2.32,199.27,6.98,211.59c4.65,12.32,11.19,22.76,19.61,31.3,8.42,8.55,18.42,15.09,29.98,19.61,11.56,4.53,24.39,6.79,38.47,6.79,12.32,0,23.07-1.39,32.25-4.15,9.18-2.76,16.97-6.28,23.38-10.56,6.41-4.27,11.63-8.99,15.65-14.14,4.02-5.15,7.17-10.12,9.43-14.9l-40.73-22.63c-2.77,5.79-7.3,10.75-13.58,14.9-6.29,4.15-15.34,6.22-27.16,6.22-6.03,0-11.76-.94-17.16-2.83-5.41-1.89-10.18-4.53-14.33-7.92s-7.42-7.41-9.81-12.07c-2.39-4.65-3.71-9.74-3.96-15.28H186.32v-25.27c0-9.81-1.76-19.93-5.28-30.36-3.52-10.43-9.05-19.99-16.6-28.66Zm-114.66,43.56c2.26-8.04,7.17-15.15,14.71-21.31,7.54-6.16,17.35-9.24,29.42-9.24s22.06,2.89,29.98,8.67c7.92,5.79,12.63,13.08,14.14,21.88H49.79Zm229.88,3.21c2.64-6.66,6.22-12.32,10.75-16.97,4.53-4.65,9.81-8.23,15.84-10.75,6.03-2.51,12.45-3.77,19.24-3.77,14.58,0,25.89,4.03,33.95,12.07,8.04,8.05,12.82,17.6,14.33,28.66l46.77-12.07c-4.28-22.12-14.52-39.98-30.74-53.56s-37.4-20.37-63.55-20.37c-13.58,0-26.34,2.26-38.28,6.79-11.95,4.53-22.38,11.07-31.3,19.61-8.93,8.55-15.91,18.86-20.93,30.93-5.03,12.07-7.54,25.65-7.54,40.73v4.53c0,15.09,2.51,28.54,7.54,40.36,5.03,11.82,11.94,21.75,20.74,29.8,8.8,8.05,19.17,14.21,31.12,18.48,11.94,4.27,24.83,6.41,38.66,6.41,26.65,0,47.96-6.79,63.93-20.37,15.96-13.58,26.08-31.43,30.36-53.56l-46.77-11.69c-2.26,12.32-7.23,22.13-14.9,29.42-7.67,7.3-18.8,10.94-33.38,10.94-6.79,0-13.2-1.07-19.24-3.21-6.03-2.13-11.32-5.34-15.84-9.62-4.53-4.27-8.11-9.62-10.75-16.03-2.64-6.41-3.96-13.77-3.96-22.06v-2.26c0-8.3,1.32-15.78,3.96-22.44Zm476.74-51.67c-7.42-8.17-16.09-14.39-26.02-18.67-9.94-4.27-20.43-6.41-31.49-6.41-14.84,0-27.03,2.83-36.59,8.49-9.56,5.66-16.85,13.64-21.88,23.95h-6.79V0h-47.52V264.02h47.52v-27.16h6.79c2.26,4.28,4.96,8.36,8.11,12.26,3.14,3.9,7.04,7.35,11.69,10.37,4.65,3.02,10.12,5.4,16.41,7.17,6.28,1.76,13.7,2.64,22.25,2.64,11.56,0,22.31-2.07,32.25-6.22,9.93-4.15,18.54-10.31,25.84-18.48,7.29-8.17,13.07-18.16,17.35-29.98,4.27-11.82,6.41-25.39,6.41-40.73v-6.79c0-15.09-2.2-28.53-6.6-40.36-4.4-11.82-10.31-21.81-17.73-29.98Zm-23.2,76c0,15.84-4.59,28.35-13.77,37.53-9.18,9.18-21.19,13.77-36.02,13.77s-26.84-4.71-36.02-14.14c-9.18-9.43-13.77-21.81-13.77-37.15v-4.53c0-15.33,4.59-27.72,13.77-37.15,9.18-9.43,21.18-14.14,36.02-14.14s26.84,4.59,36.02,13.77c9.18,9.18,13.77,21.69,13.77,37.53v4.53ZM936.88,0h-110.89V45.26h63.36V218.76h-65.63v45.26h174.25v-45.26h-61.1V0Zm272.69,96.93c-9.05-8.3-19.42-14.58-31.12-18.86-11.69-4.27-23.95-6.41-36.77-6.41s-25.08,2.14-36.77,6.41c-11.69,4.28-22.06,10.56-31.12,18.86-9.05,8.3-16.22,18.42-21.5,30.36-5.28,11.95-7.92,25.59-7.92,40.92v4.53c0,15.59,2.64,29.36,7.92,41.3,5.28,11.95,12.45,22.01,21.5,30.17,9.05,8.17,19.42,14.4,31.12,18.67,11.69,4.27,23.95,6.41,36.77,6.41s25.08-2.14,36.77-6.41c11.69-4.27,22.06-10.5,31.12-18.67,9.05-8.17,16.22-18.23,21.5-30.17,5.28-11.94,7.92-25.71,7.92-41.3v-4.53c0-15.33-2.64-28.98-7.92-40.92-5.28-11.94-12.45-22.06-21.5-30.36Zm-18.1,77.32c0,7.8-1.32,14.77-3.96,20.93-2.64,6.16-6.22,11.38-10.75,15.65-4.53,4.28-9.81,7.54-15.84,9.81-6.03,2.26-12.45,3.39-19.24,3.39s-13.2-1.13-19.24-3.39c-6.03-2.26-11.32-5.53-15.84-9.81-4.53-4.27-8.11-9.49-10.75-15.65-2.64-6.16-3.96-13.14-3.96-20.93v-7.54c0-7.79,1.32-14.77,3.96-20.93,2.64-6.16,6.22-11.37,10.75-15.65,4.53-4.27,9.81-7.54,15.84-9.81,6.03-2.26,12.45-3.39,19.24-3.39s13.2,1.13,19.24,3.39c6.03,2.26,11.32,5.53,15.84,9.81,4.53,4.28,8.11,9.49,10.75,15.65,2.64,6.16,3.96,13.14,3.96,20.93v7.54Zm136.72-25.84c2.64-6.66,6.22-12.32,10.75-16.97,4.53-4.65,9.81-8.23,15.84-10.75,6.03-2.51,12.45-3.77,19.24-3.77,14.58,0,25.9,4.03,33.95,12.07,8.04,8.05,12.82,17.6,14.33,28.66l46.77-12.07c-4.28-22.12-14.52-39.98-30.74-53.56-16.22-13.58-37.4-20.37-63.55-20.37-13.58,0-26.34,2.26-38.28,6.79-11.95,4.53-22.38,11.07-31.3,19.61-8.93,8.55-15.91,18.86-20.93,30.93-5.03,12.07-7.54,25.65-7.54,40.73v4.53c0,15.09,2.51,28.54,7.54,40.36,5.03,11.82,11.94,21.75,20.74,29.8,8.8,8.05,19.17,14.21,31.12,18.48,11.94,4.27,24.83,6.41,38.66,6.41,26.65,0,47.96-6.79,63.93-20.37,15.96-13.58,26.08-31.43,30.36-53.56l-46.77-11.69c-2.26,12.32-7.23,22.13-14.9,29.42-7.67,7.3-18.8,10.94-33.38,10.94-6.79,0-13.2-1.07-19.24-3.21-6.03-2.13-11.31-5.34-15.84-9.62-4.53-4.27-8.11-9.62-10.75-16.03-2.64-6.41-3.96-13.77-3.96-22.06v-2.26c0-8.3,1.32-15.78,3.96-22.44Zm302.3,16.41l60.35-85.62v-2.26h-52.05l-49.79,68.64h-9.05V0h-47.52V264.02h47.52v-73.17h9.05l53.56,73.17h54.31v-2.26l-66.38-90.14v-6.79Zm267.79,1.7c-12.07-9.43-27.66-15.15-46.77-17.16-16.6-1.76-28.04-3.96-34.32-6.6-6.29-2.64-9.43-6.98-9.43-13.01,0-4.27,2.01-7.86,6.03-10.75,4.02-2.89,10.05-4.34,18.1-4.34,8.8,0,15.96,1.95,21.5,5.85,5.53,3.9,9.43,9.24,11.69,16.03l43-17.35c-2.02-5.28-4.9-10.75-8.67-16.41-3.77-5.66-8.67-10.81-14.71-15.46-6.03-4.65-13.39-8.42-22.06-11.32-8.67-2.89-18.92-4.34-30.74-4.34-9.05,0-17.86,1.26-26.4,3.77-8.55,2.52-16.09,6.22-22.63,11.13-6.54,4.9-11.82,10.88-15.84,17.92-4.02,7.04-6.03,15.22-6.03,24.52v2.26c0,17.86,6.22,31.37,18.67,40.55,12.45,9.18,29.23,14.65,50.35,16.41,7.79,.75,14.27,1.76,19.42,3.02,5.15,1.26,9.24,2.83,12.26,4.71,3.02,1.89,5.09,3.9,6.22,6.03,1.13,2.14,1.7,4.47,1.7,6.98,0,4.28-2.2,8.24-6.6,11.88-4.4,3.65-12.51,5.47-24.33,5.47-13.33,0-23.2-3.02-29.61-9.05-6.41-6.03-10.63-13.07-12.64-21.12l-43.75,14.33c1.26,6.54,3.71,13.27,7.35,20.18,3.64,6.92,8.86,13.2,15.65,18.86,6.79,5.66,15.33,10.37,25.65,14.14,10.31,3.77,22.75,5.66,37.34,5.66,24.64,0,43.75-5.53,57.33-16.6,13.58-11.06,20.37-25.89,20.37-44.51v-2.26c0-16.84-6.03-29.98-18.1-39.41Z" style="fill: #010101;"/>
  </g>
</svg>